# xmcd
#
# Track frame offsets:
# 150
# 17902
# 39472
# 52067
# 77280
# 89437
# 124067
# 141687
# 168597
# 196835
# 228227
# 246005
# 267397
#
# Disc length: 3720 seconds
#
#
# Revision: 2
# Processed by: cddbd v1.5.2PL0 Copyright (c) Steve Scherf et al.
# Submitted via: FreeRIP 2.951 
#
DISCID=b10e860d
DTITLE=Geir Wentzel - 97% Soul Disc 1
DYEAR=1997
DGENRE=
TTITLE0=Get Closer
TTITLE1=Papa's got a brand new bag
TTITLE2=Hey baby
TTITLE3=Long as I can see the light
TTITLE4=Drive my car
TTITLE5=Dr. Feelgood
TTITLE6=Since you've been gone
TTITLE7=Mr. P
TTITLE8=Yes, indeed
TTITLE9=When something is wrong with my baby
TTITLE10=Chain of fools
TTITLE11=Natural woman
TTITLE12=Don't let me lose this dream
EXTD=
EXTT0=
EXTT1=
EXTT2=
EXTT3=
EXTT4=
EXTT5=
EXTT6=
EXTT7=
EXTT8=
EXTT9=
EXTT10=
EXTT11=
EXTT12=
PLAYORDER=
